<svg width="78" height="78" viewBox="0 0 78 78" fill="none" xmlns="http://www.w3.org/2000/svg">
<path d="M26 32.5V22.75C26 15.5675 31.8175 9.75 39 9.75C46.1825 9.75 52 15.5675 52 22.75V32.5M39 48.75C39.862 48.75 40.6886 48.4076 41.2981 47.7981C41.9076 47.1886 42.25 46.362 42.25 45.5C42.25 44.638 41.9076 43.8114 41.2981 43.2019C40.6886 42.5924 39.862 42.25 39 42.25C38.138 42.25 37.3114 42.5924 36.7019 43.2019C36.0924 43.8114 35.75 44.638 35.75 45.5C35.75 46.362 36.0924 47.1886 36.7019 47.7981C37.3114 48.4076 38.138 48.75 39 48.75ZM39 48.75V58.5M21.45 32.5H56.55C59.41 32.5 61.75 34.84 61.75 37.7V60.45C61.75 64.74 58.24 68.25 53.95 68.25H24.05C19.76 68.25 16.25 64.74 16.25 60.45V37.7C16.25 34.84 18.59 32.5 21.45 32.5Z" stroke="#C9A227" stroke-width="3.5" stroke-miterlimit="10" stroke-linecap="round" stroke-linejoin="round"/>
</svg>
