<svg width="34" height="34" viewBox="0 0 34 34" fill="none" xmlns="http://www.w3.org/2000/svg">
<path fill-rule="evenodd" clip-rule="evenodd" d="M4.25 17C4.25 15.8728 4.69777 14.7918 5.4948 13.9948C6.29183 13.1978 7.37283 12.75 8.5 12.75H25.5C26.6272 12.75 27.7082 13.1978 28.5052 13.9948C29.3022 14.7918 29.75 15.8728 29.75 17V26.9167C29.75 28.0438 29.3022 29.1248 28.5052 29.9219C27.7082 30.7189 26.6272 31.1667 25.5 31.1667H8.5C7.37283 31.1667 6.29183 30.7189 5.4948 29.9219C4.69777 29.1248 4.25 28.0438 4.25 26.9167V17ZM18.4167 19.8333C18.4167 19.4576 18.2674 19.0973 18.0017 18.8316C17.7361 18.5659 17.3757 18.4167 17 18.4167C16.6243 18.4167 16.2639 18.5659 15.9983 18.8316C15.7326 19.0973 15.5833 19.4576 15.5833 19.8333V24.0833C15.5833 24.4591 15.7326 24.8194 15.9983 25.0851C16.2639 25.3507 16.6243 25.5 17 25.5C17.3757 25.5 17.7361 25.3507 18.0017 25.0851C18.2674 24.8194 18.4167 24.4591 18.4167 24.0833V19.8333Z" fill="black"/>
<path d="M11.3334 14.1667V9.91667C11.3334 8.41377 11.9304 6.97243 12.9931 5.90973C14.0558 4.84702 15.4971 4.25 17 4.25C18.5029 4.25 19.9443 4.84702 21.007 5.90973C22.0697 6.97243 22.6667 8.41377 22.6667 9.91667V14.1667" stroke="black" stroke-width="2" stroke-linecap="round" stroke-linejoin="round"/>
</svg>
