<svg width="75" height="75" viewBox="0 0 75 75" fill="none" xmlns="http://www.w3.org/2000/svg">
<path d="M39.0625 38.7094L47.775 47.4219C48.0667 47.7052 48.2125 48.0583 48.2125 48.4812C48.2125 48.9042 48.0667 49.2688 47.775 49.575C47.4708 49.9188 47.1 50.0802 46.6625 50.0594C46.225 50.0385 45.8531 49.8771 45.5469 49.575L36.6937 40.7219C36.4229 40.449 36.2292 40.1635 36.1125 39.8656C35.9958 39.5677 35.9375 39.2583 35.9375 38.9375V26.3219C35.9375 25.8781 36.0875 25.5073 36.3875 25.2094C36.6875 24.9115 37.0594 24.7615 37.5031 24.7594C37.9469 24.7573 38.3177 24.9073 38.6156 25.2094C38.9135 25.5115 39.0625 25.8823 39.0625 26.3219V38.7094ZM36.3844 18.3031C36.0865 18.001 35.9375 17.6292 35.9375 17.1875V12.5H39.0625V17.1875C39.0625 17.6313 38.9125 18.0021 38.6125 18.3C38.3125 18.5979 37.9406 18.7479 37.4969 18.75C37.0531 18.7521 36.6823 18.6052 36.3844 18.3031ZM56.6969 36.3844C56.999 36.0865 57.3708 35.9375 57.8125 35.9375H62.5V39.0625H57.8125C57.3687 39.0625 56.9979 38.9125 56.7 38.6125C56.4021 38.3125 56.2521 37.9406 56.25 37.4969C56.2479 37.0531 56.3948 36.6823 56.6969 36.3844ZM38.6156 56.6969C38.9135 56.999 39.0625 57.3708 39.0625 57.8125V62.5H35.9375V57.8125C35.9375 57.3687 36.0875 56.9979 36.3875 56.7C36.6875 56.4021 37.0594 56.2521 37.5031 56.25C37.9469 56.2479 38.3177 56.3948 38.6156 56.6969ZM18.3031 38.6156C18.0031 38.9135 17.6313 39.0625 17.1875 39.0625H12.5V35.9375H17.1875C17.6313 35.9375 18.0021 36.0875 18.3 36.3875C18.5979 36.6875 18.7479 37.0594 18.75 37.5031C18.7521 37.9469 18.6052 38.3177 18.3031 38.6156ZM37.5094 65.625C33.6219 65.625 29.9656 64.8875 26.5406 63.4125C23.1177 61.9354 20.1396 59.9313 17.6062 57.4C15.0729 54.8688 13.0677 51.8938 11.5906 48.475C10.1135 45.0563 9.375 41.401 9.375 37.5094C9.375 33.6177 10.1135 29.9615 11.5906 26.5406C13.0656 23.1177 15.0667 20.1396 17.5938 17.6062C20.1208 15.0729 23.0969 13.0677 26.5219 11.5906C29.9469 10.1135 33.6031 9.375 37.4906 9.375C41.3781 9.375 45.0344 10.1135 48.4594 11.5906C51.8823 13.0656 54.8604 15.0677 57.3937 17.5969C59.9271 20.126 61.9323 23.1021 63.4094 26.525C64.8865 29.9479 65.625 33.6031 65.625 37.4906C65.625 41.3781 64.8875 45.0344 63.4125 48.4594C61.9375 51.8844 59.9333 54.8625 57.4 57.3937C54.8667 59.925 51.8917 61.9302 48.475 63.4094C45.0583 64.8885 41.4031 65.6271 37.5094 65.625ZM62.5 37.5C62.5 30.5208 60.0781 24.6094 55.2344 19.7656C50.3906 14.9219 44.4792 12.5 37.5 12.5C30.5208 12.5 24.6094 14.9219 19.7656 19.7656C14.9219 24.6094 12.5 30.5208 12.5 37.5C12.5 44.4792 14.9219 50.3906 19.7656 55.2344C24.6094 60.0781 30.5208 62.5 37.5 62.5C44.4792 62.5 50.3906 60.0781 55.2344 55.2344C60.0781 50.3906 62.5 44.4792 62.5 37.5Z" fill="#C9A227"/>
</svg>
