<svg width="86" height="86" viewBox="0 0 86 86" fill="none" xmlns="http://www.w3.org/2000/svg">
<path d="M19.7083 50.1667C21.7735 50.1663 23.7754 50.8794 25.3752 52.1853C26.975 53.4913 28.0745 55.3099 28.4875 57.3334H53.75V21.5H14.3333C12.4326 21.5 10.6098 22.2551 9.26574 23.5991C7.92173 24.9431 7.16668 26.766 7.16668 28.6667V57.3334H10.9292C11.3422 55.3099 12.4417 53.4913 14.0415 52.1853C15.6413 50.8794 17.6432 50.1663 19.7083 50.1667ZM19.7083 68.0834C17.6432 68.0838 15.6413 67.3707 14.0415 66.0647C12.4417 64.7587 11.3422 62.9401 10.9292 60.9167H3.58334V28.6667C3.58334 25.8156 4.71593 23.0813 6.73195 21.0653C8.74796 19.0493 11.4823 17.9167 14.3333 17.9167H53.75C54.7004 17.9167 55.6118 18.2942 56.2838 18.9662C56.9558 19.6382 57.3333 20.5497 57.3333 21.5V28.6667H68.0833L78.8333 43V60.9167H71.4875C71.0763 62.9418 69.9776 64.7625 68.3776 66.0702C66.7777 67.3779 64.7748 68.0923 62.7083 68.0923C60.6419 68.0923 58.639 67.3779 57.039 66.0702C55.4391 64.7625 54.3404 62.9418 53.9292 60.9167H28.4875C28.0745 62.9401 26.975 64.7587 25.3752 66.0647C23.7754 67.3707 21.7735 68.0838 19.7083 68.0834ZM19.7083 53.75C18.2828 53.75 16.9157 54.3163 15.9076 55.3243C14.8996 56.3323 14.3333 57.6995 14.3333 59.125C14.3333 60.5506 14.8996 61.9177 15.9076 62.9257C16.9157 63.9337 18.2828 64.5 19.7083 64.5C21.1339 64.5 22.501 63.9337 23.509 62.9257C24.5171 61.9177 25.0833 60.5506 25.0833 59.125C25.0833 57.6995 24.5171 56.3323 23.509 55.3243C22.501 54.3163 21.1339 53.75 19.7083 53.75ZM62.7083 50.1667C64.7735 50.1663 66.7754 50.8794 68.3752 52.1853C69.975 53.4913 71.0745 55.3099 71.4875 57.3334H75.25V44.1467L74.39 43H57.3333V51.9584C58.8383 50.8475 60.7017 50.1667 62.7083 50.1667ZM62.7083 53.75C61.2828 53.75 59.9157 54.3163 58.9076 55.3243C57.8996 56.3323 57.3333 57.6995 57.3333 59.125C57.3333 60.5506 57.8996 61.9177 58.9076 62.9257C59.9157 63.9337 61.2828 64.5 62.7083 64.5C64.1339 64.5 65.501 63.9337 66.509 62.9257C67.517 61.9177 68.0833 60.5506 68.0833 59.125C68.0833 57.6995 67.517 56.3323 66.509 55.3243C65.501 54.3163 64.1339 53.75 62.7083 53.75ZM57.3333 32.25V39.4167H71.6667L66.2917 32.25H57.3333Z" fill="#C9A227"/>
</svg>
